<svg width="54" height="56" viewBox="0 0 54 56" fill="none" xmlns="http://www.w3.org/2000/svg">
<g id="TestLogo" clip-path="url(#clip0_1_2)">
<path id="logo" fill-rule="evenodd" clip-rule="evenodd" d="M48.337 27.8496C48.4788 29.7864 48.767 31.7369 49.0597 33.6738C49.4572 36.0012 49.7244 38.3487 49.8602 40.7057C49.9837 43.7818 49.6178 46.3111 48.5977 48.0976C47.4633 50.0937 45.6198 51.1601 42.9027 51.0644C39.6595 51.0051 37.6651 49.1913 36.7639 45.8417C36.183 43.6861 36.0961 40.8287 36.4437 37.4108C36.6907 34.9407 37.0658 33.3593 36.9012 30.8164C36.6953 27.9316 36.183 25.6575 35.3459 23.9804C34.7846 22.7311 33.7553 21.7498 32.4778 21.2461V48.5579C32.8693 48.7443 33.2253 48.9972 33.5299 49.3053C33.8906 49.6638 34.1762 50.0901 34.3702 50.5595C34.5641 51.0289 34.6625 51.532 34.6597 52.0396V54.774C34.6537 55.1036 34.5171 55.4175 34.2798 55.6471C34.0424 55.8768 33.7235 56.0036 33.3926 55.9999H1.25341C0.921001 55.9999 0.602203 55.8684 0.367151 55.6342C0.132099 55.4 4.84209e-05 55.0824 4.84209e-05 54.7512V52.0169C-0.00250614 51.5093 0.0960421 51.0063 0.289986 50.5369C0.483929 50.0675 0.769415 49.6412 1.12991 49.2825C1.34306 49.0839 1.57781 48.9096 1.82978 48.763V6.61718C1.83098 5.74701 2.0042 4.88559 2.33956 4.0821C2.67492 3.27862 3.16584 2.54882 3.7843 1.93436C4.40276 1.31989 5.13664 0.832809 5.94405 0.500913C6.75145 0.169017 7.61657 -0.00119149 8.49 6.2778e-06H25.7718C27.5404 0.00481713 29.2351 0.706888 30.4857 1.95279C31.7362 3.19869 32.4409 4.88712 32.4458 6.64909V18.6849C37.6422 19.8151 39.0328 25.817 39.3667 30.7662C39.5909 34.0976 39.2981 34.0475 38.9367 37.4335C38.5845 40.6829 38.644 43.3033 39.1609 45.2219C39.7418 47.3958 40.9906 48.5715 42.9301 48.5989H42.953C44.6272 48.6536 45.7388 48.0429 46.3929 46.8899C47.166 45.5227 47.4358 43.4492 47.3078 40.8242C47.1729 38.5563 46.9164 36.2972 46.5393 34.0566C46.2374 32.0332 45.9309 29.9961 45.7891 27.8724H45.3682L45.3271 25.1927C42.125 24.8828 40.9174 22.7363 40.9174 19.651V18.2291H40.46C40.2598 18.2291 40.0678 18.1499 39.9263 18.0089C39.7847 17.8679 39.7052 17.6766 39.7052 17.4772V16.6159C39.7052 16.4164 39.7847 16.2252 39.9263 16.0842C40.0678 15.9431 40.2598 15.8639 40.46 15.8639H42.6968V11.9219C42.6962 11.7661 42.7266 11.6117 42.7861 11.4677C42.8457 11.3237 42.9333 11.1928 43.0438 11.0827C43.1544 10.9725 43.2857 10.8853 43.4303 10.8259C43.5749 10.7666 43.7298 10.7364 43.8862 10.737C44.2016 10.737 44.5041 10.8618 44.7271 11.084C44.9502 11.3062 45.0755 11.6076 45.0755 11.9219V15.8639H48.5748V11.9219C48.5748 11.6076 48.7001 11.3062 48.9232 11.084C49.1462 10.8618 49.4487 10.737 49.7642 10.737C49.9207 10.7364 50.0759 10.7666 50.2207 10.8259C50.3655 10.8851 50.4972 10.9723 50.6081 11.0824C50.719 11.1925 50.807 11.3233 50.8671 11.4674C50.9272 11.6114 50.9581 11.7659 50.9581 11.9219V15.8639H53.2452C53.3444 15.8639 53.4425 15.8834 53.5341 15.9212C53.6256 15.9589 53.7088 16.0143 53.7789 16.0842C53.849 16.154 53.9046 16.2369 53.9425 16.3281C53.9805 16.4193 54 16.5171 54 16.6159V17.4863C53.9977 17.681 53.9196 17.8673 53.7823 18.0058C53.6449 18.1444 53.459 18.2244 53.2635 18.2291H52.6734V19.8014C52.6734 22.8457 51.6396 24.6595 48.6709 25.1334V27.8405L48.337 27.8496ZM19.3083 32.4843H22.46C22.5687 32.4843 22.6764 32.5057 22.7768 32.5471C22.8773 32.5886 22.9686 32.6493 23.0455 32.7259C23.1223 32.8025 23.1833 32.8935 23.2249 32.9935C23.2665 33.0936 23.288 33.2009 23.288 33.3092C23.2857 33.4715 23.2365 33.6298 23.1462 33.7649L15.6397 46.5253C15.5404 46.6939 15.384 46.8216 15.1986 46.8855C15.0133 46.9494 14.8111 46.9453 14.6285 46.8738C14.4459 46.8024 14.2949 46.6683 14.2027 46.4958C14.1105 46.3233 14.0832 46.1237 14.1256 45.9329L15.2326 38.108L11.4999 38.1718C11.2831 38.1743 11.0741 38.0914 10.9182 37.9413C10.7623 37.7911 10.6722 37.5857 10.6674 37.3697C10.6622 37.2174 10.7019 37.0669 10.7817 36.9368L18.1601 24.1764C18.2632 24.0252 18.4138 23.9123 18.5882 23.8556C18.7627 23.7989 18.9511 23.8016 19.1238 23.8631C19.2966 23.9247 19.444 24.0416 19.5428 24.1957C19.6416 24.3497 19.6862 24.5321 19.6697 24.7142L19.29 32.4843H19.3083ZM9.99953 5.71484H24.555C25.2827 5.71548 25.9803 6.00398 26.4946 6.51692C26.5266 6.55338 26.5632 6.58528 26.5952 6.6263C27.0506 7.12545 27.3048 7.77468 27.3088 8.44921V17.7005C27.3088 18.4257 27.0196 19.1212 26.5049 19.634C25.9902 20.1468 25.2921 20.4349 24.5642 20.4349H9.99953C9.27345 20.433 8.57769 20.1446 8.06459 19.6328C7.54973 19.1205 7.26015 18.4255 7.25951 17.7005V8.44466C7.26015 7.7197 7.54973 7.02467 8.06459 6.51237C8.09902 6.47809 8.1357 6.44611 8.17437 6.41666C8.67675 5.96626 9.32827 5.71636 10.0041 5.71484H9.99953ZM31.3068 50.8092H3.32101C3.16595 50.877 3.02482 50.9728 2.90475 51.0917C2.78004 51.2154 2.68108 51.3624 2.61357 51.5243C2.54606 51.6862 2.51132 51.8598 2.51135 52.0351V53.5116H32.1301V52.0351C32.1263 51.6818 31.9853 51.3437 31.7367 51.0917C31.613 50.9697 31.4671 50.8723 31.3068 50.8046V50.8092Z" fill="black"/>
</g>
<defs>
<clipPath id="clip0_1_2">
<rect width="54" height="56" fill="white"/>
</clipPath>
</defs>
</svg>
